<?xml version="1.0" encoding="utf-8"?>
<!-- Generator: Adobe Illustrator 24.1.2, SVG Export Plug-In . SVG Version: 6.00 Build 0)  -->
<svg version="1.1" id="Ebene_1" xmlns="http://www.w3.org/2000/svg" xmlns:xlink="http://www.w3.org/1999/xlink" x="0px" y="0px"
	 viewBox="0 0 790.4 144.4" style="enable-background:new 0 0 790.4 144.4;" xml:space="preserve">
<style type="text/css">
	.st0{fill:#1E73BA;}
	.st1{fill:#FFFFFF;}
	.st2{font-family:'SourceSansPro-Bold';}
	.st3{font-size:115px;}
</style>
<circle class="st0" cx="72.2" cy="72.2" r="72.2"/>
<g>
	<path class="st1" d="M118.5,73.1l-73,40.9l1.1-83.6L118.5,73.1z M50.5,105.6L108.7,73L51.4,38.9L50.5,105.6z"/>
	<path class="st1" d="M83.2,95.7L43.6,72.2l40.2-22.5L83.2,95.7z M53.4,72.3l25,14.9l0.4-29.1L53.4,72.3z"/>
	<circle class="st1" cx="49" cy="34.7" r="12.5"/>
	<circle class="st1" cx="81.3" cy="53.9" r="12.5"/>
	<circle class="st1" cx="113.6" cy="73.1" r="12.5"/>
	<circle class="st1" cx="80.8" cy="91.4" r="12.5"/>
	<circle class="st1" cx="48" cy="109.8" r="12.5"/>
	<circle class="st1" cx="48.5" cy="72.2" r="12.5"/>
</g>
<text transform="matrix(1 0 0 1 156.9569 109.6944)" class="st0 st2 st3">STRIVECAST</text>
</svg>
